<?xml version="1.0" encoding="utf-8"?>
<!-- Generator: Adobe Illustrator 23.0.1, SVG Export Plug-In . SVG Version: 6.00 Build 0)  -->
<svg version="1.1" id="Layer_2" xmlns="http://www.w3.org/2000/svg" xmlns:xlink="http://www.w3.org/1999/xlink" x="0px" y="0px"
	 viewBox="0 0 410 404" style="enable-background:new 0 0 410 404;" xml:space="preserve">
<style type="text/css">
	.st0{fill:url(#SVGID_1_);}
	.st1{fill:url(#SVGID_2_);}
	.st2{fill:url(#SVGID_3_);}
	.st3{fill:url(#SVGID_4_);}
	.st4{fill:url(#SVGID_5_);}
	.st5{fill:url(#SVGID_6_);}
	.st6{fill:url(#SVGID_7_);}
	.st7{fill:url(#SVGID_8_);}
	.st8{fill:url(#SVGID_9_);}
	.st9{fill:none;}
</style>
<g>
	<linearGradient id="SVGID_1_" gradientUnits="userSpaceOnUse" x1="167.9361" y1="240.1061" x2="267.5869" y2="104.7724">
		<stop  offset="0" style="stop-color:#41D1FF"/>
		<stop  offset="1" style="stop-color:#BD34FE"/>
	</linearGradient>
	<path class="st0" d="M217.76,90.23c-48.18,0-87.38,36.88-87.38,82.21c0,45.33,39.2,82.21,87.38,82.21s87.38-36.88,87.38-82.21
		C305.14,127.11,265.94,90.23,217.76,90.23z M217.76,226.69c-31.79,0-57.66-24.33-57.66-54.25s25.87-54.25,57.66-54.25
		s57.66,24.33,57.66,54.25S249.55,226.69,217.76,226.69z"/>
</g>
<g>
	<linearGradient id="SVGID_2_" gradientUnits="userSpaceOnUse" x1="334.4543" y1="67.1686" x2="375.1241" y2="11.9358">
		<stop  offset="0" style="stop-color:#41D1FF"/>
		<stop  offset="1" style="stop-color:#BD34FE"/>
	</linearGradient>
	<path class="st1" d="M354.79,6c-19.66,0-35.66,15.05-35.66,33.55s16,33.55,35.66,33.55s35.66-15.05,35.66-33.55S374.45,6,354.79,6z
		 M354.79,57.57c-10.56,0-19.15-8.08-19.15-18.02s8.59-18.02,19.15-18.02s19.15,8.08,19.15,18.02S365.35,57.57,354.79,57.57z"/>
</g>
<g>
	<linearGradient id="SVGID_3_" gradientUnits="userSpaceOnUse" x1="207.6605" y1="390.8361" x2="243.0409" y2="342.7867">
		<stop  offset="0" style="stop-color:#41D1FF"/>
		<stop  offset="1" style="stop-color:#BD34FE"/>
	</linearGradient>
	<path class="st2" d="M225.35,337.62c-17.11,0-31.02,13.09-31.02,29.19S208.24,396,225.35,396s31.02-13.09,31.02-29.19
		S242.46,337.62,225.35,337.62z M225.35,380.46c-8,0-14.51-6.12-14.51-13.65s6.51-13.65,14.51-13.65c8,0,14.51,6.12,14.51,13.65
		S233.35,380.46,225.35,380.46z"/>
</g>
<g>
	<linearGradient id="SVGID_4_" gradientUnits="userSpaceOnUse" x1="61.2424" y1="136.9843" x2="101.9122" y2="81.7515">
		<stop  offset="0" style="stop-color:#41D1FF"/>
		<stop  offset="1" style="stop-color:#BD34FE"/>
	</linearGradient>
	<path class="st3" d="M81.58,75.82c-19.66,0-35.66,15.05-35.66,33.55s16,33.55,35.66,33.55s35.66-15.05,35.66-33.55
		S101.24,75.82,81.58,75.82z M81.58,127.38c-10.56,0-19.15-8.08-19.15-18.02s8.59-18.02,19.15-18.02s19.15,8.08,19.15,18.02
		S92.14,127.38,81.58,127.38z"/>
</g>
<g>
	<linearGradient id="SVGID_5_" gradientUnits="userSpaceOnUse" x1="23.7921" y1="329.0088" x2="59.253" y2="280.8501">
		<stop  offset="0" style="stop-color:#41D1FF"/>
		<stop  offset="1" style="stop-color:#BD34FE"/>
	</linearGradient>
	<path class="st4" d="M41.52,275.67c-17.15,0-31.09,13.12-31.09,29.26c0,16.13,13.95,29.26,31.09,29.26s31.1-13.12,31.1-29.26
		C72.62,288.8,58.67,275.67,41.52,275.67z M41.52,324.86c-11.68,0-21.19-8.94-21.19-19.93S29.84,285,41.52,285
		s21.19,8.94,21.19,19.93S53.2,324.86,41.52,324.86z"/>
</g>
<g>
	<linearGradient id="SVGID_6_" gradientUnits="userSpaceOnUse" x1="74.6871" y1="301.3332" x2="141.2111" y2="210.9883">
		<stop  offset="0" style="stop-color:#41D1FF"/>
		<stop  offset="1" style="stop-color:#BD34FE"/>
	</linearGradient>
	<polygon class="st5" points="148.73,216.53 60.65,288.77 67.17,295.8 155.24,223.55 	"/>
</g>
<g>
	<linearGradient id="SVGID_7_" gradientUnits="userSpaceOnUse" x1="196.7141" y1="327.9528" x2="253.9873" y2="250.1712">
		<stop  offset="0" style="stop-color:#41D1FF"/>
		<stop  offset="1" style="stop-color:#BD34FE"/>
	</linearGradient>
	<rect x="220.4" y="232.73" class="st6" width="9.91" height="112.66"/>
</g>
<g>
	<linearGradient id="SVGID_8_" gradientUnits="userSpaceOnUse" x1="269.1214" y1="141.2776" x2="332.5879" y2="55.085">
		<stop  offset="0" style="stop-color:#41D1FF"/>
		<stop  offset="1" style="stop-color:#BD34FE"/>
	</linearGradient>
	<polygon class="st7" points="336.44,57.92 258.24,131.86 265.27,138.44 343.47,64.5 	"/>
</g>
<g>
	<linearGradient id="SVGID_9_" gradientUnits="userSpaceOnUse" x1="122.5838" y1="145.5058" x2="130.1879" y2="135.1789">
		<stop  offset="0" style="stop-color:#41D1FF"/>
		<stop  offset="1" style="stop-color:#BD34FE"/>
	</linearGradient>
	<polygon class="st8" points="105.93,121.43 100.31,129.11 146.84,159.25 152.46,151.58 	"/>
</g>
<rect x="152.08" y="147.65" class="st9" width="229.08" height="27.81"/>
<rect x="500.44" y="181.27" class="st9" width="3.56" height="7.51"/>
</svg>
